<svg width="342" height="109" viewBox="0 0 342 109" fill="none" xmlns="http://www.w3.org/2000/svg">
<path d="M42.8998 108.6C34.5998 108.6 27.1998 106.8 20.6998 103.2C14.2998 99.4996 9.24981 94.4496 5.5498 88.0496C1.8498 81.6496 -0.000195161 74.3996 -0.000195161 66.2996V1.64961H20.3998V66.8996C20.3998 71.5996 21.3498 75.6496 23.2498 79.0496C25.2498 82.4496 27.9498 85.0996 31.3498 86.9996C34.8498 88.7996 38.6998 89.6996 42.8998 89.6996C47.1998 89.6996 50.9998 88.7996 54.2998 86.9996C57.5998 85.0996 60.1998 82.4496 62.0998 79.0496C64.0998 75.6496 65.0998 71.6496 65.0998 67.0496V1.64961H85.6498V66.4496C85.6498 74.5496 83.7998 81.7996 80.0998 88.1996C76.3998 94.4996 71.3498 99.4996 64.9498 103.2C58.6498 106.8 51.2998 108.6 42.8998 108.6ZM162.343 108.6C154.043 108.6 146.643 106.8 140.143 103.2C133.743 99.4996 128.693 94.4496 124.993 88.0496C121.293 81.6496 119.443 74.3996 119.443 66.2996V1.64961H139.843V66.8996C139.843 71.5996 140.793 75.6496 142.693 79.0496C144.693 82.4496 147.393 85.0996 150.793 86.9996C154.293 88.7996 158.143 89.6996 162.343 89.6996C166.643 89.6996 170.443 88.7996 173.743 86.9996C177.043 85.0996 179.643 82.4496 181.543 79.0496C183.543 75.6496 184.543 71.6496 184.543 67.0496V1.64961H205.093V66.4496C205.093 74.5496 203.243 81.7996 199.543 88.1996C195.843 94.4996 190.793 99.4996 184.393 103.2C178.093 106.8 170.743 108.6 162.343 108.6ZM288.987 108.6C281.487 108.6 274.437 107.25 267.837 104.55C261.337 101.75 255.587 97.8496 250.587 92.8496C245.687 87.8496 241.837 82.0996 239.037 75.5996C236.337 68.9996 234.987 61.8996 234.987 54.2996C234.987 46.5996 236.387 39.4996 239.187 32.9996C241.987 26.3996 245.887 20.6496 250.887 15.7496C255.887 10.7496 261.737 6.8996 268.437 4.1996C275.137 1.3996 282.387 -0.000397563 290.187 -0.000397563C298.887 -0.000397563 306.887 1.6496 314.187 4.9496C321.487 8.1496 327.537 12.6996 332.337 18.5996L318.537 32.3996C315.237 28.0996 311.137 24.7996 306.237 22.4996C301.337 20.1996 295.937 19.0496 290.037 19.0496C283.337 19.0496 277.387 20.5496 272.187 23.5496C267.087 26.4496 263.087 30.5496 260.187 35.8496C257.287 41.0496 255.837 47.1496 255.837 54.1496C255.837 61.1496 257.237 67.3496 260.037 72.7496C262.937 78.0496 266.837 82.1996 271.737 85.1996C276.737 88.1996 282.437 89.6996 288.837 89.6996C295.437 89.6996 301.087 88.4996 305.787 86.0996C310.487 83.5996 314.087 79.9996 316.587 75.2996C319.087 70.4996 320.337 64.6496 320.337 57.7496L333.687 66.8996L287.637 66.4496V48.7496H341.337V51.5996C341.337 64.1996 339.087 74.7496 334.587 83.2496C330.087 91.6496 323.887 97.9996 315.987 102.3C308.187 106.5 299.187 108.6 288.987 108.6Z" fill="black"/>
</svg>
